<?xml version="1.0" encoding="UTF-8"?>
<svg id="Layer_2" data-name="Layer 2" xmlns="http://www.w3.org/2000/svg" xmlns:xlink="http://www.w3.org/1999/xlink" viewBox="0 0 116.23 124.97">
  <defs>
    <style>
      .cls-1, .cls-2, .cls-3, .cls-4, .cls-5 {
        fill: none;
      }

      .cls-2 {
        stroke: #d9f1a3;
      }

      .cls-2, .cls-3, .cls-4, .cls-5 {
        stroke-width: 1.54px;
      }

      .cls-6 {
        fill: url(#linear-gradient-2);
      }

      .cls-7 {
        fill: url(#linear-gradient);
      }

      .cls-3 {
        opacity: .6;
      }

      .cls-3, .cls-4, .cls-5 {
        isolation: isolate;
        stroke: #fff;
      }

      .cls-8 {
        clip-path: url(#clippath-1);
      }

      .cls-9 {
        clip-path: url(#clippath);
      }

      .cls-4 {
        opacity: .4;
      }

      .cls-5 {
        opacity: .8;
      }
    </style>
    <clipPath id="clippath">
      <rect class="cls-1" x="11.87" y="10.15" width="92.19" height="104.68" transform="translate(-14.08 16.94) rotate(-14.85)"/>
    </clipPath>
    <linearGradient id="linear-gradient" x1="-454.77" y1="-6900.17" x2="-487.89" y2="-6908.95" gradientTransform="translate(564 -6824.23) scale(1 -1)" gradientUnits="userSpaceOnUse">
      <stop offset="0" stop-color="#dbeeae"/>
      <stop offset="1" stop-color="#dbeeae" stop-opacity="0"/>
    </linearGradient>
    <clipPath id="clippath-1">
      <rect class="cls-1" x="12.06" y="10.15" width="92.19" height="104.68" transform="translate(-14.19 17.18) rotate(-15)"/>
    </clipPath>
    <linearGradient id="linear-gradient-2" x1="-557.14" y1="-6873.4" x2="-524.04" y2="-6864.54" xlink:href="#linear-gradient"/>
  </defs>
  <g id="Layer_1-2" data-name="Layer 1">
    <g class="cls-9">
      <g>
        <path class="cls-4" d="M7.08,48.8c3.63,13.7,17.73,21.85,31.5,18.2,13.76-3.65,21.98-17.71,18.35-31.41-3.63-13.7-17.73-21.85-31.5-18.2-13.76,3.65-21.98,17.71-18.35,31.41Z"/>
        <path class="cls-3" d="M24.21,61.35c3.63,13.7,17.73,21.85,31.5,18.2,13.76-3.65,21.98-17.71,18.35-31.41-3.63-13.7-17.73-21.85-31.5-18.2-13.76,3.65-21.98,17.71-18.35,31.41Z"/>
        <path class="cls-5" d="M41.45,75.71c3.63,13.7,17.73,21.85,31.5,18.2,13.76-3.65,21.98-17.71,18.35-31.41-3.63-13.7-17.73-21.85-31.5-18.2-13.76,3.65-21.98,17.71-18.35,31.41Z"/>
        <path class="cls-7" d="M58.34,89.43c3.71,13.99,18.11,22.31,32.16,18.58,14.05-3.73,22.44-18.08,18.73-32.07-3.71-13.99-18.11-22.31-32.16-18.58-14.05,3.73-22.44,18.08-18.73,32.07Z"/>
        <path class="cls-2" d="M58.86,89.29c3.63,13.7,17.73,21.85,31.5,18.2,13.76-3.65,21.98-17.71,18.35-31.41-3.63-13.7-17.73-21.85-31.5-18.2-13.76,3.65-21.98,17.71-18.35,31.41Z"/>
      </g>
    </g>
    <g class="cls-8">
      <g>
        <path class="cls-4" d="M109.08,76.03c-3.67-13.69-17.79-21.8-31.55-18.11-13.75,3.69-21.93,17.77-18.26,31.46,3.67,13.69,17.79,21.8,31.55,18.11,13.75-3.69,21.93-17.77,18.26-31.46Z"/>
        <path class="cls-3" d="M91.92,63.54c-3.67-13.69-17.79-21.8-31.55-18.11-13.75,3.69-21.93,17.77-18.26,31.46,3.67,13.69,17.79,21.8,31.55,18.11s21.93-17.77,18.26-31.46Z"/>
        <path class="cls-5" d="M74.64,49.22c-3.67-13.69-17.79-21.8-31.55-18.11s-21.93,17.77-18.26,31.46c3.67,13.69,17.79,21.8,31.55,18.11,13.75-3.69,21.93-17.77,18.26-31.46Z"/>
        <path class="cls-6" d="M57.72,35.54c-3.75-13.98-18.17-22.26-32.21-18.49C11.47,20.81,3.12,35.19,6.86,49.17c3.75,13.98,18.17,22.26,32.21,18.49,14.04-3.76,22.39-18.14,18.65-32.12Z"/>
        <path class="cls-2" d="M57.19,35.68c-3.67-13.69-17.79-21.8-31.55-18.11-13.75,3.69-21.93,17.77-18.26,31.46,3.67,13.69,17.79,21.8,31.55,18.11,13.75-3.69,21.93-17.77,18.26-31.46Z"/>
      </g>
    </g>
  </g>
</svg>