<svg width="26" height="26" viewBox="0 0 26 26" fill="none" xmlns="http://www.w3.org/2000/svg">
<path d="M25.6954 24.163L24.5281 22.9957L22.6529 21.1238L25.6759 18.1008C26.0989 17.6772 26.0983 16.9909 25.6747 16.568C25.5631 16.4565 25.4285 16.3708 25.2803 16.3167L15.5589 12.7898C14.433 12.3829 13.1903 12.9657 12.7834 14.0917C12.6114 14.5675 12.6113 15.0886 12.7831 15.5646L16.3198 25.286C16.446 25.634 16.7411 25.8935 17.1024 25.9743C17.1797 25.9911 17.2585 25.9994 17.3376 25.9992C17.625 25.9992 17.9007 25.8849 18.1039 25.6816L21.1236 22.6532L22.9955 24.5251L24.1629 25.6925C24.5935 26.1083 25.2796 26.0964 25.6955 25.6658C26.1011 25.2458 26.1011 24.5799 25.6955 24.1598L25.6954 24.163Z" fill="url(#paint0_linear_1337_143)"/>
<path d="M10.8389 21.6778C4.85275 21.6778 0 16.825 0 10.8389C0 4.8528 4.85275 0 10.8389 0C16.825 0 21.6778 4.85275 21.6778 10.8389C21.6778 11.4375 21.1925 11.9228 20.5939 11.9228C19.9953 11.9228 19.51 11.4375 19.51 10.8389C19.51 6.04997 15.6278 2.16779 10.8389 2.16779C6.04992 2.16779 2.16779 6.04997 2.16779 10.8389C2.16779 15.6279 6.04997 19.51 10.8389 19.51C11.4375 19.51 11.9228 19.9953 11.9228 20.5939C11.9228 21.1925 11.4375 21.6778 10.8389 21.6778Z" fill="url(#paint1_linear_1337_143)"/>
<path d="M8.76164 16.9302C8.61917 16.9303 8.47813 16.9023 8.34649 16.8479C5.02954 15.4702 3.45741 11.6645 4.83505 8.34747C6.21269 5.03047 10.0185 3.45839 13.3354 4.83603C14.9275 5.49729 16.1918 6.76361 16.8507 8.35667C17.0889 8.90585 16.8368 9.54414 16.2877 9.78237C15.7385 10.0206 15.1002 9.76855 14.862 9.21943C14.857 9.20795 14.8523 9.19641 14.8477 9.18478C13.9301 6.97309 11.3933 5.92402 9.18171 6.8416C6.97007 7.75918 5.92095 10.2959 6.83853 12.5076C7.27796 13.5668 8.11913 14.4087 9.1779 14.8492C9.73104 15.0781 9.99386 15.712 9.76493 16.2652C9.59701 16.671 9.20081 16.9353 8.76169 16.9346L8.76164 16.9302Z" fill="url(#paint2_linear_1337_143)"/>
<path d="M8.76164 16.9302C8.61917 16.9303 8.47813 16.9023 8.34649 16.8479C5.02954 15.4702 3.45741 11.6645 4.83505 8.34747C6.21269 5.03047 10.0185 3.45839 13.3354 4.83603C14.9275 5.49729 16.1918 6.76361 16.8507 8.35667C17.0889 8.90585 16.8368 9.54414 16.2877 9.78237C15.7385 10.0206 15.1002 9.76855 14.862 9.21943C14.857 9.20795 14.8523 9.19641 14.8477 9.18478C13.9301 6.97309 11.3933 5.92402 9.18171 6.8416C6.97007 7.75918 5.92095 10.2959 6.83853 12.5076C7.27796 13.5668 8.11913 14.4087 9.1779 14.8492C9.73104 15.0781 9.99386 15.712 9.76493 16.2652C9.59701 16.671 9.20081 16.9353 8.76169 16.9346L8.76164 16.9302Z" fill="url(#paint3_linear_1337_143)"/>
<defs>
<linearGradient id="paint0_linear_1337_143" x1="19.327" y1="12.6602" x2="19.327" y2="25.9992" gradientUnits="userSpaceOnUse">
<stop stop-color="#A6F63B"/>
<stop offset="1" stop-color="#DFED3F"/>
</linearGradient>
<linearGradient id="paint1_linear_1337_143" x1="10.8389" y1="0" x2="10.8389" y2="21.6778" gradientUnits="userSpaceOnUse">
<stop stop-color="#A6F63B"/>
<stop offset="1" stop-color="#DFED3F"/>
</linearGradient>
<linearGradient id="paint2_linear_1337_143" x1="10.6382" y1="4.33691" x2="10.6382" y2="16.9346" gradientUnits="userSpaceOnUse">
<stop stop-color="#A6F63B"/>
<stop offset="1" stop-color="#DFED3F"/>
</linearGradient>
<linearGradient id="paint3_linear_1337_143" x1="10.6382" y1="4.33691" x2="10.6382" y2="16.9346" gradientUnits="userSpaceOnUse">
<stop stop-color="#A6F63B"/>
<stop offset="1" stop-color="#DFED3F"/>
</linearGradient>
</defs>
</svg>
