<svg viewBox="0 0 15.906 21.108" fill="none" xmlns="http://www.w3.org/2000/svg" x="0" y="0"><path id="Vector_6" d="M15.3214,4.1494c-0.661,-0.5586 -1.297,-1.1952 -1.91,-1.8018c-0.589,-0.5946 -1.207,-1.2072 -1.832,-1.7358c-0.378,-0.3183 -0.805,-0.4985 -1.255,-0.5405c-1.231,0.06 -2.559,0.024 -3.838,-0.012c-0.402,-0.006 -0.799,-0.018 -1.207,-0.0301h-0.006c-0.427,-0.006 -0.799,-0.012 -1.135,-0.012c-0.337,0 -0.649,0.006 -0.949,0.012h-0.006c-0.295,0.0121 -0.571,0.0241 -0.859,0.0421c-1.051,0.066 -1.85,0.8528 -1.94,1.9039v17.3335c0.096,0.919 0.811,1.6757 1.784,1.8379h12.402c0.871,-0.1021 1.664,-0.9369 1.736,-1.8619v-13.4836c-0.048,-0.5766 -0.342,-1.0811 -0.979,-1.6517zM10.9604,0.9662l4.421,4.1862h-3.964c-0.21,0 -0.457,-0.2402 -0.457,-0.4504zM15.6394,19.3087c0,0.1262 -0.168,0.4685 -0.168,0.4745c-0.21,0.3904 -0.607,0.6427 -1.093,0.7027h-12.024c-0.727,-0.072 -1.238,-0.5765 -1.304,-1.2733v-17.1773c0.054,-0.5166 0.313,-0.919 0.703,-1.1232c0.006,0 0.348,-0.1681 0.475,-0.1681h8.072v4.1382c0,0.3183 0.63,0.9429 0.949,0.9429h4.396v13.4897z" fill="currentColor"/></svg>