<svg viewBox="0 0 24.198 13.8783" fill="none" xmlns="http://www.w3.org/2000/svg" x="0" y="0"><path id="Vector_11" d="M24.9671,0.6089v6.5707c-0.126,0.3543 -0.456,0.5225 -0.726,0.5345c-0.151,0.006 -0.505,-0.024 -0.679,-0.4384c-0.012,-0.0361 -0.06,-0.1442 -0.078,-0.2042v-4.4806l-8.787,8.6848c-0.27,0.1021 -0.499,0.0781 -0.685,-0.048l-4.769,-4.7568l-7.285,7.2673c-0.216,0.1622 -0.456,0.2102 -0.673,0.1502c-0.234,-0.0721 -0.426,-0.2583 -0.54,-0.5226v-0.3483l0.162,-0.2823l7.982,-7.94c0.234,-0.1322 0.571,-0.1081 0.775,0.036l4.763,4.7088l8.03,-8.0302h-4.625c-0.072,-0.03 -0.192,-0.084 -0.222,-0.1021c-0.294,-0.1922 -0.348,-0.5165 -0.3,-0.7567c0.048,-0.2283 0.216,-0.4985 0.54,-0.5646c1.063,0.048 2.174,0.012 3.243,-0.024c1.051,-0.0301 2.139,-0.0661 3.154,-0.018c0.324,0.012 0.564,0.2042 0.72,0.5645z" fill="currentColor"/></svg>