<svg viewBox="0 0 17.442 22.2203" fill="none" xmlns="http://www.w3.org/2000/svg" x="0" y="0"><path id="Vector_2" d="M17.2986,4.2848c-3.1712,-0.955 -5.982,-2.6667 -8.0841,-4.0481c-0.3004,-0.1922 -0.4265,-0.2523 -0.6187,-0.2042c-2.8288,1.958 -5.6517,3.3934 -8.4085,4.2583c-0.1261,0.1501 -0.1682,0.2162 -0.1682,0.3003v7.2673c0,1.4775 0.4025,2.931 1.2133,4.1623c1.7598,2.6847 4.4325,5.0391 7.0811,6.1322l0.0721,0.03c0.2443,0.1001 0.4885,0.1021 0.7328,0.006c2.8228,-1.1472 5.5556,-3.7958 7.0151,-5.91c0.006,-0.012 0.012,-0.024 0.024,-0.03c0.8709,-1.2733 1.3213,-2.7868 1.3213,-4.3304v-7.3094c0,-0.0961 -0.1021,-0.2282 -0.1802,-0.3183zM16.698,12.5672c0,0.8708 -0.2402,1.7297 -0.7027,2.4685c-1.1291,1.7958 -2.4865,3.3093 -4.0541,4.5165c-0.8649,0.6607 -2.1081,1.5736 -2.9129,1.8319c-0.0901,0.036 -0.1742,0.06 -0.2823,0.06c-0.0481,0 -0.0901,-0.006 -0.1442,-0.012c-0.3423,-0.054 -1.6096,-0.8348 -1.6216,-0.8408c-2.1502,-1.3814 -4.0121,-3.2673 -5.4415,-5.4896c-0.4685,-0.7327 -0.7087,-1.5916 -0.7147,-2.4625l-0.0361,-7.3454c0,-0.1802 0.1141,-0.3484 0.2823,-0.4204l0.6367,-0.2463c0.7627,-0.3003 1.5435,-0.6066 2.2763,-0.973c0.036,-0.048 0.0961,-0.1141 0.1861,-0.1621c1.6097,-0.8289 3.0211,-1.6217 4.3244,-2.4205c0.0961,-0.06 0.2162,-0.0841 0.3304,-0.054l0.1621,0.036c0.0541,0.012 0.1021,0.03 0.1502,0.0601c1.2072,0.7748 2.5526,1.5435 4.2283,2.4084c0.6967,0.3544 1.4534,0.7267 2.2642,1.0451c0.0181,0.012 0.0781,0.024 0.1502,0.048c0.5225,0.1562 0.7988,0.2523 0.9009,0.5285c0.018,0.0481 0.024,0.0961 0.024,0.1502v7.2734z" fill="currentColor"/></svg>