<svg width="23" height="23" viewBox="0 0 23 23" fill="none" xmlns="http://www.w3.org/2000/svg">
<path d="M23 18.3885V2.94404C23 2.01925 22.5793 1.16825 21.8442 0.610501C21.0929 0.0383759 20.1327 -0.139874 19.2136 0.113126C17.0516 0.714001 14.7535 1.27463 12.4583 1.40783V18.2074H10.5417V1.40783C8.24358 1.27463 5.94742 0.713042 3.78733 0.113126C2.86542 -0.141791 1.90708 0.0383759 1.15575 0.610501C0.420708 1.16825 0 2.01925 0 2.94308V18.3876L0.614292 18.6243C2.51083 19.3536 4.4965 19.8768 6.54925 20.2036C4.62492 20.6761 2.30479 21.0843 0 21.0843V23.001C4.27513 23.001 8.47358 21.7494 10.5417 21.0278C10.948 20.885 11.2738 20.7633 11.5 20.6761C11.7252 20.7633 12.0539 20.885 12.4583 21.0259V21.0278C14.5264 21.7494 18.7249 23.001 23 23.001V21.0843C20.6952 21.0843 18.376 20.677 16.4517 20.2046C18.5035 19.8778 20.4892 19.3545 22.3867 18.6252L23 18.3885ZM8.625 17.5835C6.30392 17.3717 4.05758 16.9223 1.91667 16.215V14.1805C4.04704 14.9414 6.29433 15.4282 8.625 15.6563V17.5835ZM8.625 13.7502C6.30392 13.5384 4.05758 13.089 1.91667 12.3817V10.3472C4.04704 11.1081 6.29433 11.5949 8.625 11.823V13.7502ZM8.625 9.91687C6.30392 9.70508 4.05758 9.25563 1.91667 8.54838V6.51383C4.04704 7.27475 6.29433 7.76158 8.625 7.98967V9.91687ZM8.625 6.08354C6.30392 5.87175 4.05758 5.42229 1.91667 4.71504V2.6805C4.04704 3.44142 6.29433 3.92825 8.625 4.15633V6.08354ZM21.0833 16.215C18.9415 16.9223 16.6942 17.3717 14.375 17.5835V15.6563C16.7047 15.4273 18.952 14.9414 21.0833 14.1795V16.215ZM21.0833 12.3817C18.9415 13.089 16.6942 13.5384 14.375 13.7502V11.823C16.7047 11.594 18.952 11.1081 21.0833 10.3462V12.3807V12.3817ZM21.0833 8.54838C18.9415 9.25563 16.6942 9.70508 14.375 9.91687V7.98967C16.7047 7.76063 18.952 7.27475 21.0833 6.51288V8.54742V8.54838ZM21.0833 4.71504C18.9415 5.42229 16.6942 5.87175 14.375 6.08354V4.15633C16.7047 3.92729 18.952 3.44142 21.0833 2.67954V4.71504Z" fill="url(#paint0_linear_1336_146)"/>
<defs>
<linearGradient id="paint0_linear_1336_146" x1="11.5005" y1="0" x2="11.5005" y2="23.001" gradientUnits="userSpaceOnUse">
<stop stop-color="#DFED3F"/>
<stop offset="0.221154" stop-color="#A7F73B"/>
</linearGradient>
</defs>
</svg>
