<svg width="26" height="26" viewBox="0 0 26 26" fill="none" xmlns="http://www.w3.org/2000/svg">
<path d="M11.9163 2.70833C11.9163 1.21225 13.1285 0 14.6246 0C16.1207 0 17.3329 1.21225 17.3329 2.70833C17.3329 4.20442 16.1207 5.41667 14.6246 5.41667C13.1285 5.41667 11.9163 4.20442 11.9163 2.70833ZM3.79128 11.9167C5.28736 11.9167 6.49961 10.7044 6.49961 9.20833C6.49961 7.71225 5.28736 6.5 3.79128 6.5C2.2952 6.5 1.08295 7.71225 1.08295 9.20833C1.08295 10.7044 2.2952 11.9167 3.79128 11.9167ZM25.2998 15.9607L11.6335 25.4215C11.0897 25.7974 10.4451 25.9989 9.7832 25.9989H8.12353C7.22653 25.9989 6.49853 25.2709 6.49853 24.3739V21.6656H4.33186V22.2072C4.33186 22.4586 4.27336 22.7088 4.1607 22.9342L3.07736 25.1008C2.79245 25.6696 2.21828 25.9989 1.62245 25.9989C1.37761 25.9989 1.12953 25.9437 0.896612 25.8277C0.0938619 25.4258 -0.231138 24.4508 0.169695 23.647L1.08186 21.8227V15.7062C1.08186 14.3347 2.10561 13.2123 3.42836 13.0347L8.2687 11.557C8.2687 11.557 12.7797 7.23342 12.797 7.21825C13.2791 6.77517 13.9172 6.49783 14.6235 6.49783H19.4985V1.73442C19.4985 0.77675 20.2753 0 21.2329 0C21.5168 0 21.7963 0.0693333 22.0465 0.202583L25.3572 1.95975C26.1253 2.28042 26.2271 3.32692 25.5349 3.7895L22.7496 4.87608V8.12608C22.7496 9.02308 22.0216 9.75108 21.1246 9.75108H17.3329V11.9177H17.8746C19.3707 11.9177 20.5829 13.13 20.5829 14.6261V15.2739L23.4494 13.2892C24.1883 12.7768 25.2001 12.9621 25.7104 13.7009C26.2217 14.4387 26.0375 15.4505 25.2998 15.9618V15.9607ZM11.9163 12.5602L10.2425 14.1711C10.0584 14.3477 9.8352 14.4798 9.59036 14.5546L6.49961 15.4982V18.4177H7.04128C8.53411 18.4177 9.74961 19.6322 9.74961 21.1261L9.7832 22.7511L11.9163 21.2745V12.5612V12.5602ZM17.3329 15.1667H15.1663V19.0233L17.3329 17.5229V15.1667Z" fill="url(#paint0_linear_1336_145)"/>
<defs>
<linearGradient id="paint0_linear_1336_145" x1="12.9989" y1="0" x2="12.9989" y2="25.9989" gradientUnits="userSpaceOnUse">
<stop stop-color="#DFED3F"/>
<stop offset="0.495192" stop-color="#A6F63B"/>
</linearGradient>
</defs>
</svg>
