<svg width="26" height="26" viewBox="0 0 26 26" fill="none" xmlns="http://www.w3.org/2000/svg">
<path d="M1.08333 26C0.796016 26 0.520465 25.8859 0.317301 25.6827C0.114137 25.4795 0 25.204 0 24.9167V4.33333C0 3.18406 0.456546 2.08186 1.2692 1.2692C2.08186 0.456546 3.18406 0 4.33333 0L11.9167 0C13.0659 0 14.1681 0.456546 14.9808 1.2692C15.7935 2.08186 16.25 3.18406 16.25 4.33333V9.75C16.25 10.8993 15.7935 12.0015 14.9808 12.8141C14.1681 13.6268 13.0659 14.0833 11.9167 14.0833H2.16667V24.9167C2.16667 25.204 2.05253 25.4795 1.84937 25.6827C1.6462 25.8859 1.37065 26 1.08333 26ZM21.6667 4.33333H18.4167V9.75C18.4149 11.4734 17.7296 13.1257 16.511 14.3443C15.2923 15.5629 13.64 16.2483 11.9167 16.25H11.4357C11.8131 16.9065 12.3564 17.4523 13.0113 17.8326C13.6661 18.2128 14.4094 18.4143 15.1667 18.4167H21.6667C22.8159 18.4167 23.9181 17.9601 24.7308 17.1475C25.5435 16.3348 26 15.2326 26 14.0833V8.66667C26 7.5174 25.5435 6.41519 24.7308 5.60254C23.9181 4.78988 22.8159 4.33333 21.6667 4.33333Z" fill="url(#paint0_linear_1336_144)"/>
<defs>
<linearGradient id="paint0_linear_1336_144" x1="22.495" y1="-7.58891e-07" x2="3.50502" y2="26" gradientUnits="userSpaceOnUse">
<stop stop-color="#A6F63B"/>
<stop offset="1" stop-color="#DFED3F"/>
</linearGradient>
</defs>
</svg>
